<?xml version="1.0" standalone="no"?>
<!DOCTYPE svg PUBLIC "-//W3C//DTD SVG 20010904//EN"
 "http://www.w3.org/TR/2001/REC-SVG-20010904/DTD/svg10.dtd">
<svg version="1.0" xmlns="http://www.w3.org/2000/svg"
 width="196.000000pt" height="196.000000pt" viewBox="0 0 196.000000 196.000000"
 preserveAspectRatio="xMidYMid meet">
<metadata>
Created by potrace 1.14, written by Peter Selinger 2001-2017
</metadata>
<g transform="translate(0.000000,196.000000) scale(0.100000,-0.100000)"
fill="#000000" stroke="none">
<path d="M1504 1951 c-5 -5 -187 -86 -404 -181 -454 -198 -489 -215 -551 -273
-85 -79 -119 -175 -115 -326 5 -134 47 -223 132 -280 25 -16 124 -54 224 -87
99 -32 180 -61 180 -65 0 -4 -10 -11 -22 -14 -32 -10 -189 -79 -277 -123 -121
-60 -205 -152 -226 -247 -9 -37 -16 -325 -10 -344 4 -9 9 -10 18 -3 6 5 185
85 397 177 446 194 504 223 571 282 76 70 100 138 104 302 5 173 -44 266 -170
326 -43 21 -276 97 -342 112 -23 5 -32 23 -12 23 6 0 40 14 76 30 35 17 66 30
69 30 20 0 218 106 252 135 105 91 131 167 131 380 0 138 -5 165 -25 146z"/>
</g>
</svg>
